<svg width="24" height="24" viewBox="0 0 24 24" fill="none" xmlns="http://www.w3.org/2000/svg">
<path d="M12 10.2019L9.303 11.9999L12 13.7979L14.697 11.9999L12 10.2019ZM16.5 10.7979L19.197 8.99991L13 4.86891V8.46491L16.5 10.7979ZM20 10.8679L18.303 11.9999L20 13.1309V10.8699V10.8679ZM16.5 13.2019L13 15.5349V19.1309L19.197 14.9999L16.5 13.2019ZM11 8.46491V4.86891L4.803 8.99991L7.5 10.7979L11 8.46491ZM4.803 14.9999L11 19.1309V15.5349L7.5 13.2019L4.803 14.9999ZM5.697 11.9999L4 10.8689V13.1309L5.697 11.9999ZM2 8.99991C1.99998 8.83531 2.04058 8.67326 2.11821 8.52812C2.19583 8.38299 2.30808 8.25925 2.445 8.16791L11.445 2.16791C11.6093 2.05827 11.8025 1.99976 12 1.99976C12.1975 1.99976 12.3907 2.05827 12.555 2.16791L21.555 8.16791C21.6919 8.25925 21.8042 8.38299 21.8818 8.52812C21.9594 8.67326 22 8.83531 22 8.99991V14.9999C22 15.1645 21.9594 15.3266 21.8818 15.4717C21.8042 15.6168 21.6919 15.7406 21.555 15.8319L12.555 21.8319C12.3907 21.9415 12.1975 22.0001 12 22.0001C11.8025 22.0001 11.6093 21.9415 11.445 21.8319L2.445 15.8319C2.30808 15.7406 2.19583 15.6168 2.11821 15.4717C2.04058 15.3266 1.99998 15.1645 2 14.9999V8.99991Z" fill="#171717"/>
</svg>
