<svg width="15" height="15" viewBox="0 0 15 15" fill="none" xmlns="http://www.w3.org/2000/svg">
<path d="M5.54816 1.492C5.03496 2.60604 4.87551 3.85061 5.09131 5.05804C5.3071 6.26548 5.88777 7.37777 6.75508 8.24508C7.62239 9.1124 8.73469 9.69306 9.94212 9.90886C11.1496 10.1246 12.3941 9.96521 13.5082 9.452C12.8455 12.436 10.1835 14.6667 7.00016 14.6667C3.31816 14.6667 0.333496 11.682 0.333496 8C0.333496 4.81667 2.56416 2.15467 5.54816 1.492ZM11.1095 1.52733L11.6668 1.66667V2.33333L11.1095 2.47267C10.8751 2.53129 10.661 2.6525 10.4902 2.82335C10.3193 2.9942 10.1981 3.20827 10.1395 3.44267L10.0002 4H9.3335L9.19416 3.44267C9.13554 3.20827 9.01433 2.9942 8.84348 2.82335C8.67263 2.6525 8.45856 2.53129 8.22416 2.47267L7.66683 2.33333V1.66667L8.22416 1.52733C8.45844 1.46861 8.67237 1.34734 8.84309 1.1765C9.01382 1.00566 9.13493 0.79165 9.1935 0.557333L9.3335 0H10.0002L10.1395 0.557333C10.1981 0.791733 10.3193 1.0058 10.4902 1.17665C10.661 1.3475 10.8751 1.46871 11.1095 1.52733ZM14.4428 4.86067L15.0002 5V5.66667L14.4428 5.806C14.2084 5.86462 13.9944 5.98584 13.8235 6.15669C13.6527 6.32754 13.5315 6.5416 13.4728 6.776L13.3335 7.33333H12.6668L12.5275 6.776C12.4689 6.5416 12.3477 6.32754 12.1768 6.15669C12.006 5.98584 11.7919 5.86462 11.5575 5.806L11.0002 5.66667V5L11.5575 4.86067C11.7919 4.80204 12.006 4.68083 12.1768 4.50998C12.3477 4.33913 12.4689 4.12507 12.5275 3.89067L12.6668 3.33333H13.3335L13.4728 3.89067C13.5315 4.12507 13.6527 4.33913 13.8235 4.50998C13.9944 4.68083 14.2084 4.80204 14.4428 4.86067Z" fill="#03053D"/>
</svg>
