<svg width="16" height="16" viewBox="0 0 16 16" fill="none" xmlns="http://www.w3.org/2000/svg">
<path d="M8.00033 12C6.93946 12 5.92204 11.5785 5.1719 10.8284C4.42175 10.0782 4.00033 9.06082 4.00033 7.99996C4.00033 6.93909 4.42175 5.92168 5.1719 5.17153C5.92204 4.42139 6.93946 3.99996 8.00033 3.99996C9.06119 3.99996 10.0786 4.42139 10.8288 5.17153C11.5789 5.92168 12.0003 6.93909 12.0003 7.99996C12.0003 9.06082 11.5789 10.0782 10.8288 10.8284C10.0786 11.5785 9.06119 12 8.00033 12ZM7.33366 0.666626H8.66699V2.66663H7.33366V0.666626ZM7.33366 13.3333H8.66699V15.3333H7.33366V13.3333ZM2.34366 3.28596L3.28633 2.34329L4.70033 3.75729L3.75766 4.69996L2.34366 3.28663V3.28596ZM11.3003 12.2426L12.243 11.3L13.657 12.714L12.7143 13.6566L11.3003 12.2426ZM12.7143 2.34263L13.657 3.28596L12.243 4.69996L11.3003 3.75729L12.7143 2.34329V2.34263ZM3.75766 11.3L4.70033 12.2426L3.28633 13.6566L2.34366 12.714L3.75766 11.3ZM15.3337 7.33329V8.66663H13.3337V7.33329H15.3337ZM2.66699 7.33329V8.66663H0.666992V7.33329H2.66699Z" fill="white"/>
</svg>
